<?xml version="1.0" encoding="UTF-8" standalone="no"?>
<!-- Created with Inkscape (http://www.inkscape.org/) -->

<svg
   width="1310.667"
   height="1141.333"
   viewBox="0 0 346.78064 301.97768"
   version="1.1"
   id="svg3433"
   xml:space="preserve"
   inkscape:version="1.2.2 (b0a8486541, 2022-12-01)"
   sodipodi:docname="GospelProcession.svg"
   xmlns:inkscape="http://www.inkscape.org/namespaces/inkscape"
   xmlns:sodipodi="http://sodipodi.sourceforge.net/DTD/sodipodi-0.dtd"
   xmlns:xlink="http://www.w3.org/1999/xlink"
   xmlns="http://www.w3.org/2000/svg"
   xmlns:svg="http://www.w3.org/2000/svg"><sodipodi:namedview
     id="namedview3435"
     pagecolor="#ffffff"
     bordercolor="#666666"
     borderopacity="1.0"
     inkscape:showpageshadow="2"
     inkscape:pageopacity="0.0"
     inkscape:pagecheckerboard="0"
     inkscape:deskcolor="#d1d1d1"
     inkscape:document-units="px"
     showgrid="false"
     inkscape:zoom="0.84096521"
     inkscape:cx="468.50928"
     inkscape:cy="369.2186"
     inkscape:window-width="1680"
     inkscape:window-height="988"
     inkscape:window-x="1680"
     inkscape:window-y="34"
     inkscape:window-maximized="0"
     inkscape:current-layer="layer1" /><defs
     id="defs3430"><marker
       style="overflow:visible"
       id="marker6003"
       refX="0"
       refY="0"
       orient="auto-start-reverse"
       inkscape:stockid="Arrow1"
       markerWidth="4.0606599"
       markerHeight="6.7071066"
       viewBox="0 0 4.0606602 6.7071068"
       inkscape:isstock="true"
       inkscape:collect="always"
       preserveAspectRatio="xMidYMid"><path
         style="fill:none;stroke:context-stroke;stroke-width:1;stroke-linecap:butt"
         d="M 3,-3 0,0 3,3"
         id="path6001"
         transform="rotate(180,0.125,0)"
         sodipodi:nodetypes="ccc" /></marker><marker
       style="overflow:visible"
       id="Arrow1"
       refX="0"
       refY="0"
       orient="auto-start-reverse"
       inkscape:stockid="Arrow1"
       markerWidth="4.0606604"
       markerHeight="6.7071066"
       viewBox="0 0 4.0606602 6.7071068"
       inkscape:isstock="true"
       inkscape:collect="always"
       preserveAspectRatio="xMidYMid"><path
         style="fill:none;stroke:context-stroke;stroke-width:1;stroke-linecap:butt"
         d="M 3,-3 0,0 3,3"
         id="path5057"
         transform="rotate(180,0.125,0)"
         sodipodi:nodetypes="ccc" /></marker><linearGradient
       inkscape:collect="always"
       id="linearGradient2110"><stop
         style="stop-color:#edff00;stop-opacity:1;"
         offset="0"
         id="stop2106" /><stop
         style="stop-color:#ff1700;stop-opacity:1;"
         offset="1"
         id="stop2108" /></linearGradient><linearGradient
       id="linearGradient1039"
       inkscape:swatch="solid"><stop
         style="stop-color:#000000;stop-opacity:1;"
         offset="0"
         id="stop1037" /></linearGradient><linearGradient
       inkscape:collect="always"
       xlink:href="#linearGradient2110"
       id="linearGradient3944"
       gradientUnits="userSpaceOnUse"
       gradientTransform="matrix(0.80732565,0,0,0.80732565,-77.173977,150.37894)"
       x1="-400.90625"
       y1="784.28125"
       x2="-400.90625"
       y2="773.75" /><linearGradient
       inkscape:collect="always"
       xlink:href="#linearGradient2110"
       id="linearGradient3946"
       gradientUnits="userSpaceOnUse"
       gradientTransform="matrix(0.80732565,0,0,0.80732565,-77.173977,150.37894)"
       x1="-400.90625"
       y1="784.28125"
       x2="-400.90625"
       y2="773.75" /><linearGradient
       inkscape:collect="always"
       xlink:href="#linearGradient2110"
       id="linearGradient4951"
       gradientUnits="userSpaceOnUse"
       gradientTransform="matrix(0.80732565,0,0,0.80732565,-77.173977,150.37894)"
       x1="-400.90625"
       y1="784.28125"
       x2="-400.90625"
       y2="773.75" /><linearGradient
       inkscape:collect="always"
       xlink:href="#linearGradient2110"
       id="linearGradient4953"
       gradientUnits="userSpaceOnUse"
       gradientTransform="matrix(0.80732565,0,0,0.80732565,-77.173977,150.37894)"
       x1="-400.90625"
       y1="784.28125"
       x2="-400.90625"
       y2="773.75" /></defs><g
     inkscape:label="Layer 1"
     inkscape:groupmode="layer"
     id="layer1"><path
       style="fill:none;stroke:#000000;stroke-width:0.529167;stroke-linecap:round;stroke-linejoin:round;stroke-dasharray:none;stroke-opacity:1"
       d="m -121.96467,185.85781 6.29787,-4.87834 6.29787,4.87834"
       id="path1771"
       sodipodi:nodetypes="ccc" /><text
       xml:space="preserve"
       style="font-style:normal;font-weight:normal;font-size:10.5833px;line-height:1.25;font-family:sans-serif;fill:#000000;fill-opacity:1;stroke:none;stroke-width:0.264583"
       x="84.118591"
       y="98.921707"
       id="text5303"><tspan
         sodipodi:role="line"
         id="tspan5301"
         x="84.118591"
         y="98.921707"
         style="stroke-width:0.264583" /></text><g
       id="g13302"
       transform="matrix(0.26458333,0,0,0.26458333,65.675705,-105.20562)"><path
         style="fill:#c8ab37;stroke-width:1.33333"
         d="m 36.430079,625.5479 v -72 h 68.000001 68 v 72 72 h -68 -68.000001 z"
         id="path4031" /><text
         xml:space="preserve"
         style="font-style:normal;font-weight:normal;font-size:40px;line-height:1.25;font-family:sans-serif;fill:#000000;fill-opacity:1;stroke:none"
         x="49.630096"
         y="640.54791"
         id="text13059"><tspan
           sodipodi:role="line"
           id="tspan13057"
           x="49.630096"
           y="640.54791">Ambo</tspan></text></g><g
       id="g13323"
       transform="matrix(0.26458333,0,0,0.26458333,-8.4015121,-40.823676)"><path
         style="fill:#000080;stroke:#ffffff;stroke-width:1.33333"
         d="m 970.66441,450.00444 c -0.49553,-0.49554 -0.90097,-32.00098 -0.90097,-70.0121 v -69.1111 h 68.67856 68.6786 l -0.3453,69.66666 -0.3452,69.66667 -67.4324,0.34543 c -37.0877,0.18998 -67.83774,-0.06 -68.33329,-0.55556 z"
         id="path4035" /><text
         xml:space="preserve"
         style="font-style:normal;font-variant:normal;font-weight:normal;font-stretch:normal;font-size:26.6667px;line-height:1.25;font-family:sans-serif;-inkscape-font-specification:'sans-serif, Normal';font-variant-ligatures:normal;font-variant-caps:normal;font-variant-numeric:normal;font-variant-east-asian:normal;fill:#ffffff;fill-opacity:1;stroke:#ffffff"
         x="976.83038"
         y="374.08575"
         id="text13063"><tspan
           sodipodi:role="line"
           id="tspan13061"
           x="976.83038"
           y="374.08575">Presider's</tspan><tspan
           sodipodi:role="line"
           x="976.83038"
           y="407.41913"
           id="tspan13065">Chair</tspan></text></g><g
       id="g13334"
       transform="matrix(0.0684792,-0.25556787,0.25556787,0.0684792,168.19896,318.24341)"><path
         style="fill:#800000;stroke-width:1.33333"
         d="M 1175.0968,225.54791 V 4.2145822 h 55.3333 55.3333 V 225.54791 446.88124 h -55.3333 -55.3333 z"
         id="path4037" /><text
         xml:space="preserve"
         style="font-style:normal;font-weight:normal;font-size:40px;line-height:1.25;font-family:sans-serif;fill:#000000;fill-opacity:1;stroke:none"
         x="90.287964"
         y="-1220.4901"
         id="text13069"
         transform="rotate(90)"><tspan
           sodipodi:role="line"
           id="tspan13067"
           x="90.287964"
           y="-1220.4901">Server Seating</tspan></text></g><g
       id="g13329"
       transform="matrix(0.26458333,0,0,0.26458333,-308.57784,-33.396721)"><path
         style="fill:#552200;stroke-width:1.33333"
         d="M 1173.7634,581.5479 V 462.88124 h 55.3334 55.3333 V 581.5479 700.21456 h -55.3333 -55.3334 z"
         id="path4029" /><text
         xml:space="preserve"
         style="font-style:normal;font-weight:normal;font-size:40px;line-height:1.25;font-family:sans-serif;fill:#000000;fill-opacity:1;stroke:none"
         x="493.76794"
         y="-1239.0968"
         id="text13073"
         transform="rotate(90)"><tspan
           sodipodi:role="line"
           id="tspan13071"
           x="493.76794"
           y="-1239.0968">Credence</tspan><tspan
           sodipodi:role="line"
           x="493.76794"
           y="-1189.0968"
           id="tspan13075">Table</tspan></text></g><g
       id="g13312"
       transform="matrix(0.26458333,0,0,0.26458333,0.99735507,0.0867436)"><rect
         style="fill:#aa4400;stroke:#552200;stroke-width:3.19126;stroke-linecap:round;stroke-linejoin:round"
         id="rect13131"
         width="302.80365"
         height="120.69273"
         x="204.07645"
         y="1036.244" /><text
         xml:space="preserve"
         style="font-style:normal;font-weight:normal;font-size:40px;line-height:1.25;font-family:sans-serif;fill:#000000;fill-opacity:1;stroke:none"
         x="306.15833"
         y="1110.6704"
         id="text13293"><tspan
           sodipodi:role="line"
           id="tspan13291"
           x="306.15833"
           y="1110.6704">Pews</tspan></text></g><g
       id="g13317"
       transform="matrix(0.26458333,0,0,0.26458333,0.99735507,0.0867436)"><rect
         style="fill:#aa4400;stroke:#552200;stroke-width:3.19126;stroke-linecap:round;stroke-linejoin:round"
         id="rect13289"
         width="302.80365"
         height="120.69273"
         x="803.78668"
         y="1036.244" /><text
         xml:space="preserve"
         style="font-style:normal;font-weight:normal;font-size:40px;line-height:1.25;font-family:sans-serif;fill:#000000;fill-opacity:1;stroke:none"
         x="905.86853"
         y="1110.6704"
         id="text13297"><tspan
           sodipodi:role="line"
           id="tspan13295"
           x="905.86853"
           y="1110.6704">Pews</tspan></text></g><g
       id="g3342"
       transform="matrix(0.26458333,0,0,0.26458333,130.81921,156.34291)"><path
         sodipodi:type="star"
         style="fill:#a5a5a5;fill-opacity:1;stroke:#000000;stroke-width:2.45463;stroke-dasharray:none;stroke-opacity:0.994924"
         id="path342"
         inkscape:flatsided="true"
         sodipodi:sides="8"
         sodipodi:cx="188.71742"
         sodipodi:cy="102.12943"
         sodipodi:r1="226.63496"
         sodipodi:r2="196.27164"
         sodipodi:arg1="0.60430551"
         sodipodi:arg2="0.99700459"
         inkscape:rounded="0"
         inkscape:randomized="0"
         d="M 375.21463,230.90132 229.53539,325.05835 59.945539,288.62664 -34.211491,142.9474 2.2202135,-26.642451 147.89945,-120.79948 317.48931,-84.367776 411.64634,61.311463 Z"
         transform="matrix(0.79580001,-0.17487265,0.17487265,0.79580001,-18.179117,15.000777)" /><path
         sodipodi:type="star"
         style="fill:#808000;fill-opacity:1;stroke:#000000;stroke-width:4.65365;stroke-dasharray:none;stroke-opacity:0.994924"
         id="path346"
         inkscape:flatsided="true"
         sodipodi:sides="8"
         sodipodi:cx="188.71742"
         sodipodi:cy="102.12943"
         sodipodi:r1="226.63496"
         sodipodi:r2="196.27164"
         sodipodi:arg1="0.60430551"
         sodipodi:arg2="0.99700459"
         inkscape:rounded="0"
         inkscape:randomized="0"
         d="M 375.21463,230.90132 229.53539,325.05835 59.945539,288.62664 -34.211491,142.9474 2.2202135,-26.642451 147.89945,-120.79948 317.48931,-84.367776 411.64634,61.311463 Z"
         transform="matrix(0.41975506,-0.09223885,0.09223885,0.41975506,61.22646,37.811596)" /><text
         xml:space="preserve"
         style="font-style:normal;font-weight:normal;font-size:40px;line-height:1.25;font-family:sans-serif;fill:#000000;fill-opacity:1;stroke:none"
         x="105.52185"
         y="78.273865"
         id="text3286"><tspan
           sodipodi:role="line"
           id="tspan3284"
           x="105.52185"
           y="78.273865">Altar</tspan></text></g><g
       id="g3350"
       transform="matrix(0,0.26458333,-0.26458333,0,302.363,-50.547616)"><rect
         style="fill:#aa4400;stroke:#552200;stroke-width:3.19126;stroke-linecap:round;stroke-linejoin:round"
         id="rect3344"
         width="302.80365"
         height="120.69273"
         x="204.07645"
         y="1036.244" /><text
         xml:space="preserve"
         style="font-style:normal;font-weight:normal;font-size:40px;line-height:1.25;font-family:sans-serif;fill:#000000;fill-opacity:1;stroke:none"
         x="306.15833"
         y="1110.6704"
         id="text3348"><tspan
           sodipodi:role="line"
           id="tspan3346"
           x="306.15833"
           y="1110.6704">Pews</tspan></text></g><g
       id="g3926"
       transform="matrix(0.26458333,0,0,0.26458333,249.52162,-90.461494)"><g
         id="g5891"
         transform="rotate(180,-396.77675,788.5027)"><g
           id="g3922"
           transform="matrix(1.291578,0,0,1.291578,121.35773,-225.83204)"
           style="stroke-width:0.774247;stroke-dasharray:none"><g
             id="g3918"
             style="stroke-width:0.774247;stroke-dasharray:none"><path
               id="path3914"
               style="fill:#fffddc;stroke:#000000;stroke-width:0.774247;stroke-linecap:round;stroke-linejoin:round;stroke-dasharray:none"
               d="m -411.29492,784.33984 c 0.12996,4.62489 -0.2468,9.54558 0,14.03321 2.76543,8.79312 20.06754,6.62806 20.25411,-0.53516 0.2118,-4.27325 0,-9.04105 0,-13.49805 z"
               sodipodi:nodetypes="ccccc" /><ellipse
               style="fill:#fffddc;fill-opacity:1;stroke:#000000;stroke-width:0.774247;stroke-linecap:round;stroke-linejoin:round;stroke-dasharray:none;stroke-dashoffset:0;stroke-opacity:1"
               id="ellipse3916"
               ry="5.9937019"
               rx="10.127289"
               cy="784.85736"
               cx="-401.16391" /></g><path
             id="path3920"
             style="fill:url(#linearGradient3944);stroke:#000000;stroke-width:0.774247;stroke-linecap:round;stroke-linejoin:round;stroke-dasharray:none"
             d="m -397.73272,779.41177 c -0.034,2.29879 -1.44506,4.0114 -3.10316,4.0114 -1.65809,0 -3.78886,-2.0025 -3.00224,-4.16277 0.83256,-2.28643 2.35634,-5.68989 3.00224,-4.16278 0.40015,0.94608 1.57854,2.331 2.22382,1.37062 0.60613,-0.90211 0.90457,1.23897 0.87934,2.94353 z"
             sodipodi:nodetypes="ssssss" /></g><path
           style="fill:none;stroke:#000000;stroke-width:2;stroke-linecap:round;stroke-linejoin:round;stroke-dasharray:none;stroke-opacity:1"
           d="m -420.57971,783.1764 23.80297,-18.43785 23.80296,18.43785"
           id="path3924"
           sodipodi:nodetypes="ccc" /></g></g><g
       id="g3940"
       transform="matrix(-0.26458333,0,0,-0.26458333,89.584965,326.78785)"><g
         id="g3936"
         transform="matrix(1.291578,0,0,1.291578,121.35773,-225.83204)"
         style="stroke-width:0.774247;stroke-dasharray:none"><g
           id="g3932"
           style="stroke-width:0.774247;stroke-dasharray:none"><path
             id="path3928"
             style="fill:#fffddc;stroke:#000000;stroke-width:0.774247;stroke-linecap:round;stroke-linejoin:round;stroke-dasharray:none"
             d="m -411.29492,784.33984 c 0.12996,4.62489 -0.2468,9.54558 0,14.03321 2.76543,8.79312 20.06754,6.62806 20.25411,-0.53516 0.2118,-4.27325 0,-9.04105 0,-13.49805 z"
             sodipodi:nodetypes="ccccc" /><ellipse
             style="fill:#fffddc;fill-opacity:1;stroke:#000000;stroke-width:0.774247;stroke-linecap:round;stroke-linejoin:round;stroke-dasharray:none;stroke-dashoffset:0;stroke-opacity:1"
             id="ellipse3930"
             ry="5.9937019"
             rx="10.127289"
             cy="784.85736"
             cx="-401.16391" /></g><path
           id="path3934"
           style="fill:url(#linearGradient3946);stroke:#000000;stroke-width:0.774247;stroke-linecap:round;stroke-linejoin:round;stroke-dasharray:none"
           d="m -397.73272,779.41177 c -0.034,2.29879 -1.44506,4.0114 -3.10316,4.0114 -1.65809,0 -3.78886,-2.0025 -3.00224,-4.16277 0.83256,-2.28643 2.35634,-5.68989 3.00224,-4.16278 0.40015,0.94608 1.57854,2.331 2.22382,1.37062 0.60613,-0.90211 0.90457,1.23897 0.87934,2.94353 z"
           sodipodi:nodetypes="ssssss" /></g><path
         style="fill:none;stroke:#000000;stroke-width:2;stroke-linecap:round;stroke-linejoin:round;stroke-dasharray:none;stroke-opacity:1"
         d="m -420.57971,783.1764 23.80297,-18.43785 23.80296,18.43785"
         id="path3938"
         sodipodi:nodetypes="ccc" /></g><g
       id="g4935"
       transform="matrix(0,0.26458333,-0.26458333,0,275.60317,151.58502)"><g
         id="g4931"
         transform="matrix(1.291578,0,0,1.291578,121.35773,-225.83204)"
         style="stroke-width:0.774247;stroke-dasharray:none"><g
           id="g4927"
           style="stroke-width:0.774247;stroke-dasharray:none"><path
             id="path4923"
             style="fill:#fffddc;stroke:#000000;stroke-width:0.774247;stroke-linecap:round;stroke-linejoin:round;stroke-dasharray:none"
             d="m -411.29492,784.33984 c 0.12996,4.62489 -0.2468,9.54558 0,14.03321 2.76543,8.79312 20.06754,6.62806 20.25411,-0.53516 0.2118,-4.27325 0,-9.04105 0,-13.49805 z"
             sodipodi:nodetypes="ccccc"
             inkscape:export-filename="Images/GospelProcession.png"
             inkscape:export-xdpi="96"
             inkscape:export-ydpi="96" /><ellipse
             style="fill:#fffddc;fill-opacity:1;stroke:#000000;stroke-width:0.774247;stroke-linecap:round;stroke-linejoin:round;stroke-dasharray:none;stroke-dashoffset:0;stroke-opacity:1"
             id="ellipse4925"
             ry="5.9937019"
             rx="10.127289"
             cy="784.85736"
             cx="-401.16391" /></g><path
           id="path4929"
           style="fill:url(#linearGradient4953);stroke:#000000;stroke-width:0.774247;stroke-linecap:round;stroke-linejoin:round;stroke-dasharray:none"
           d="m -397.73272,779.41177 c -0.034,2.29879 -1.44506,4.0114 -3.10316,4.0114 -1.65809,0 -3.78886,-2.0025 -3.00224,-4.16277 0.83256,-2.28643 2.35634,-5.68989 3.00224,-4.16278 0.40015,0.94608 1.57854,2.331 2.22382,1.37062 0.60613,-0.90211 0.90457,1.23897 0.87934,2.94353 z"
           sodipodi:nodetypes="ssssss" /></g><path
         style="fill:none;stroke:#000000;stroke-width:2;stroke-linecap:round;stroke-linejoin:round;stroke-dasharray:none;stroke-opacity:1"
         d="m -420.57971,783.1764 23.80297,-18.43785 23.80296,18.43785"
         id="path4933"
         sodipodi:nodetypes="ccc" /></g><g
       id="g4949"
       transform="matrix(0,-0.26458333,0.26458333,0,-88.611372,-58.376003)"><g
         id="g4945"
         transform="matrix(1.291578,0,0,1.291578,121.35773,-225.83204)"
         style="stroke-width:0.774247;stroke-dasharray:none"><g
           id="g4941"
           style="stroke-width:0.774247;stroke-dasharray:none"><path
             id="path4937"
             style="fill:#fffddc;stroke:#000000;stroke-width:0.774247;stroke-linecap:round;stroke-linejoin:round;stroke-dasharray:none"
             d="m -411.29492,784.33984 c 0.12996,4.62489 -0.2468,9.54558 0,14.03321 2.76543,8.79312 20.06754,6.62806 20.25411,-0.53516 0.2118,-4.27325 0,-9.04105 0,-13.49805 z"
             sodipodi:nodetypes="ccccc" /><ellipse
             style="fill:#fffddc;fill-opacity:1;stroke:#000000;stroke-width:0.774247;stroke-linecap:round;stroke-linejoin:round;stroke-dasharray:none;stroke-dashoffset:0;stroke-opacity:1"
             id="ellipse4939"
             ry="5.9937019"
             rx="10.127289"
             cy="784.85736"
             cx="-401.16391" /></g><path
           id="path4943"
           style="fill:url(#linearGradient4951);stroke:#000000;stroke-width:0.774247;stroke-linecap:round;stroke-linejoin:round;stroke-dasharray:none"
           d="m -397.73272,779.41177 c -0.034,2.29879 -1.44506,4.0114 -3.10316,4.0114 -1.65809,0 -3.78886,-2.0025 -3.00224,-4.16277 0.83256,-2.28643 2.35634,-5.68989 3.00224,-4.16278 0.40015,0.94608 1.57854,2.331 2.22382,1.37062 0.60613,-0.90211 0.90457,1.23897 0.87934,2.94353 z"
           sodipodi:nodetypes="ssssss" /></g><path
         style="fill:none;stroke:#000000;stroke-width:2;stroke-linecap:round;stroke-linejoin:round;stroke-dasharray:none;stroke-opacity:1"
         d="m -420.57971,783.1764 23.80297,-18.43785 23.80296,18.43785"
         id="path4947"
         sodipodi:nodetypes="ccc" /></g><g
       id="g4879"
       transform="matrix(0.26458333,0,0,0.26458333,187.43552,3.9371863)"
       inkscape:export-filename="g4879.png"
       inkscape:export-xdpi="96"
       inkscape:export-ydpi="96"><g
         aria-label="P"
         id="text4835"
         style="font-size:40px;line-height:1.25;fill:#000000;fill-opacity:1;stroke:#000000;stroke-linecap:butt;stroke-linejoin:round;stroke-opacity:1"
         transform="translate(-480.39611,91.840434)"><path
           id="path4841"
           style="fill:#90ec2f;fill-opacity:1;stroke:#000000;stroke-linecap:butt;stroke-linejoin:round;stroke-opacity:1"
           d="m 409.06799,397.72011 v 25.97266 l -15.33008,-9.76563 v 4.6543 l 15.18945,9.40625 -15.18945,9.26172 v 4.99805 l 15.33008,-9.75586 v 14.39258 h 3.5996 v -15.90625 l 16.05469,10.43554 v -4.65429 l -13.71875,-8.62305 13.71875,-8.57422 v -4.90039 l -16.05469,10.41992 v -9.92187 h 3.2793 c 2.85333,0 5.10644,-0.42597 6.75977,-1.2793 1.68,-0.85333 2.86721,-1.96031 3.56054,-3.32031 0.72,-1.38667 1.08008,-2.86808 1.08008,-4.44141 0,-2.66667 -0.85388,-4.73255 -2.56054,-6.19922 -1.70667,-1.46667 -4.42683,-2.19922 -8.16016,-2.19922 z m 3.5996,3.08008 h 3.64063 c 2.53333,0 4.38526,0.45271 5.55859,1.35938 1.17333,0.90667 1.75977,2.27914 1.75977,4.11914 0,2.10666 -0.66667,3.60047 -2,4.48047 -1.33333,0.87999 -3.36008,1.32031 -6.08008,1.32031 h -2.87891 z" /></g><g
         aria-label="X"
         transform="rotate(90)"
         id="text4839"
         style="font-size:48.9972px;line-height:1.25;stroke:#000000;stroke-width:1.22493;stroke-linejoin:round" /></g><g
       id="g5899"
       transform="matrix(0.26458333,0,0,0.26458333,111.79607,-99.517436)"
       inkscape:export-filename="g4879.png"
       inkscape:export-xdpi="96"
       inkscape:export-ydpi="96"><g
         aria-label="P"
         id="g5895"
         style="font-size:40px;line-height:1.25;fill:#000000;fill-opacity:1;stroke:#000000;stroke-linecap:butt;stroke-linejoin:round;stroke-opacity:1"
         transform="translate(-480.39611,91.840434)"><path
           id="path5893"
           style="fill:#90ec2f;fill-opacity:1;stroke:#000000;stroke-linecap:butt;stroke-linejoin:round;stroke-opacity:1"
           d="m 409.06799,397.72011 v 25.97266 l -15.33008,-9.76563 v 4.6543 l 15.18945,9.40625 -15.18945,9.26172 v 4.99805 l 15.33008,-9.75586 v 14.39258 h 3.5996 v -15.90625 l 16.05469,10.43554 v -4.65429 l -13.71875,-8.62305 13.71875,-8.57422 v -4.90039 l -16.05469,10.41992 v -9.92187 h 3.2793 c 2.85333,0 5.10644,-0.42597 6.75977,-1.2793 1.68,-0.85333 2.86721,-1.96031 3.56054,-3.32031 0.72,-1.38667 1.08008,-2.86808 1.08008,-4.44141 0,-2.66667 -0.85388,-4.73255 -2.56054,-6.19922 -1.70667,-1.46667 -4.42683,-2.19922 -8.16016,-2.19922 z m 3.5996,3.08008 h 3.64063 c 2.53333,0 4.38526,0.45271 5.55859,1.35938 1.17333,0.90667 1.75977,2.27914 1.75977,4.11914 0,2.10666 -0.66667,3.60047 -2,4.48047 -1.33333,0.87999 -3.36008,1.32031 -6.08008,1.32031 h -2.87891 z" /></g><g
         aria-label="X"
         transform="rotate(90)"
         id="g5897"
         style="font-size:48.9972px;line-height:1.25;stroke:#000000;stroke-width:1.22493;stroke-linejoin:round" /></g><path
       style="fill:none;stroke:#000000;stroke-width:0.79375;stroke-linecap:butt;stroke-linejoin:miter;stroke-dasharray:none;stroke-opacity:1;marker-end:url(#Arrow1)"
       d="m 240.36864,15.101695 c 0,0 -141.612243,-9.8780433 -160.770124,-0.943856 -19.157881,8.934187 -15.416313,23.911017 -15.416313,23.911017"
       id="path5901"
       sodipodi:nodetypes="czc" /><path
       style="fill:none;stroke:#000000;stroke-width:0.79375;stroke-linecap:butt;stroke-linejoin:miter;stroke-dasharray:none;stroke-opacity:1;marker-end:url(#Arrow1)"
       d="M 244.09935,28.095921 128.26571,38.386188"
       id="path5903"
       inkscape:export-filename="path5903.png"
       inkscape:export-xdpi="96"
       inkscape:export-ydpi="96"
       sodipodi:nodetypes="cc" /><path
       style="fill:none;stroke:#ff0000;stroke-width:0.793749;stroke-linecap:butt;stroke-linejoin:miter;stroke-dasharray:none;stroke-opacity:1;marker-end:url(#Arrow1)"
       d="m 71.750358,39.641948 c 0,0 2.574045,-3.700803 19.214368,-10.067795 28.856924,-11.041352 61.062194,-5.024873 74.065434,4.719278 29.20399,21.884414 28.94491,70.159959 28.94491,70.159959"
       id="path5905"
       sodipodi:nodetypes="cssc" /><path
       style="fill:none;stroke:#ff0000;stroke-width:0.793751;stroke-linecap:butt;stroke-linejoin:miter;stroke-dasharray:none;stroke-opacity:1;marker-end:url(#Arrow1)"
       d="m 128.79855,48.81192 c 0,0 7.40809,-2.538759 10.8059,12.088174 2.66264,11.462188 0.77997,44.781196 0.77997,44.781196"
       id="path5907"
       sodipodi:nodetypes="csc" /><path
       style="fill:none;stroke:#0016ff;stroke-width:0.851289;stroke-linecap:butt;stroke-linejoin:miter;stroke-dasharray:none;stroke-opacity:1;marker-start:url(#marker6003)"
       d="m 128.79924,44.762514 c 0,0 13.00649,-4.785322 16.65061,10.901928 2.85566,12.293091 0.16166,48.322068 0.16166,48.322068"
       id="path5987"
       sodipodi:nodetypes="csc" /><text
       xml:space="preserve"
       style="font-style:normal;font-weight:normal;font-size:10.5833px;line-height:1.25;font-family:sans-serif;fill:#000000;fill-opacity:1;stroke:none;stroke-width:0.264583"
       x="217.31317"
       y="26.863642"
       id="text6053"><tspan
         sodipodi:role="line"
         id="tspan6051"
         style="stroke-width:0.264583"
         x="217.31317"
         y="26.863642">1</tspan></text><g
       id="g6073"
       transform="translate(-34.301104,28.814595)"><text
         xml:space="preserve"
         style="font-style:normal;font-weight:normal;font-size:10.5833px;line-height:1.25;font-family:sans-serif;fill:#ff0000;fill-opacity:1;stroke:#ff0000;stroke-width:0.264583;stroke-opacity:1"
         x="187.40332"
         y="30.885542"
         id="text6057"><tspan
           sodipodi:role="line"
           id="tspan6055"
           style="fill:#ff0000;fill-opacity:1;stroke:#ff0000;stroke-width:0.264583;stroke-opacity:1"
           x="187.40332"
           y="30.885542">2</tspan></text><text
         xml:space="preserve"
         style="font-style:normal;font-weight:normal;font-size:10.5833px;line-height:1.25;font-family:sans-serif;fill:#000000;fill-opacity:1;stroke:none;stroke-width:0.264583"
         x="192.90663"
         y="30.837917"
         id="text6061"><tspan
           sodipodi:role="line"
           id="tspan6059"
           style="stroke-width:0.264583"
           x="192.90663"
           y="30.837917"> &amp; </tspan></text><text
         xml:space="preserve"
         style="font-style:normal;font-weight:normal;font-size:10.5833px;line-height:1.25;font-family:sans-serif;fill:#001eff;fill-opacity:1;stroke:#001cff;stroke-width:0.264583;stroke-dasharray:none;stroke-opacity:1"
         x="205.28865"
         y="30.832626"
         id="text6065"><tspan
           sodipodi:role="line"
           id="tspan6063"
           style="fill:#001eff;fill-opacity:1;stroke:#001cff;stroke-width:0.264583;stroke-dasharray:none;stroke-opacity:1"
           x="205.28865"
           y="30.832626">3</tspan></text></g><path
       style="fill:none;stroke:#0000ff;stroke-width:0.79375;stroke-linecap:butt;stroke-linejoin:miter;stroke-dasharray:none;stroke-opacity:1;marker-start:url(#marker6003)"
       d="m 71.707135,34.988852 c 0,0 2.757861,-3.967205 20.586491,-10.792523 30.917634,-11.836162 64.793484,-4.757351 78.725304,5.688231 31.28948,23.459759 29.75343,77.41274 29.75343,77.41274"
       id="path3913"
       sodipodi:nodetypes="cssc" /></g></svg>
