<?xml version="1.0" encoding="UTF-8" standalone="no"?>
<!-- Created with Inkscape (http://www.inkscape.org/) -->

<svg
   version="1.1"
   id="svg48"
   width="1310.6667"
   height="1141.3333"
   viewBox="0 0 1310.6667 1141.3333"
   sodipodi:docname="Blank.svg"
   inkscape:version="1.2.2 (b0a8486541, 2022-12-01)"
   inkscape:export-filename="EntranceProcession.png"
   inkscape:export-xdpi="96"
   inkscape:export-ydpi="96"
   xmlns:inkscape="http://www.inkscape.org/namespaces/inkscape"
   xmlns:sodipodi="http://sodipodi.sourceforge.net/DTD/sodipodi-0.dtd"
   xmlns:xlink="http://www.w3.org/1999/xlink"
   xmlns="http://www.w3.org/2000/svg"
   xmlns:svg="http://www.w3.org/2000/svg">
  <defs
     id="defs52">
    <linearGradient
       inkscape:collect="always"
       id="linearGradient2110">
      <stop
         style="stop-color:#edff00;stop-opacity:1;"
         offset="0"
         id="stop2106" />
      <stop
         style="stop-color:#ff1700;stop-opacity:1;"
         offset="1"
         id="stop2108" />
    </linearGradient>
    <linearGradient
       id="linearGradient1039"
       inkscape:swatch="solid">
      <stop
         style="stop-color:#000000;stop-opacity:1;"
         offset="0"
         id="stop1037" />
    </linearGradient>
    <linearGradient
       inkscape:collect="always"
       xlink:href="#linearGradient2110"
       id="linearGradient2112"
       x1="-400.90625"
       y1="784.28125"
       x2="-400.90625"
       y2="773.75"
       gradientUnits="userSpaceOnUse"
       gradientTransform="matrix(0.80732565,0,0,0.80732565,-77.173977,150.37894)" />
  </defs>
  <sodipodi:namedview
     id="namedview50"
     pagecolor="#ffffff"
     bordercolor="#666666"
     borderopacity="1.0"
     inkscape:showpageshadow="2"
     inkscape:pageopacity="0.0"
     inkscape:pagecheckerboard="0"
     inkscape:deskcolor="#d1d1d1"
     showgrid="false"
     inkscape:zoom="0.63697434"
     inkscape:cx="315.55431"
     inkscape:cy="674.28147"
     inkscape:window-width="1680"
     inkscape:window-height="978"
     inkscape:window-x="0"
     inkscape:window-y="0"
     inkscape:window-maximized="1"
     inkscape:current-layer="g54" />
  <g
     inkscape:groupmode="layer"
     inkscape:label="Image"
     id="g54">
    <path
       style="fill:#800000;stroke-width:1.33333"
       d="m 34.763411,199.8029 v -14.71325 l 33,0.35663 32.999999,0.35662 v 14 14 l -32.999999,0.35663 -33,0.35663 z"
       id="path4187" />
    <path
       style="fill:#501616;stroke-width:1.33333"
       d="M 35.096746,249.13624 V 235.8029 h 32.666667 32.666667 v 13.33334 13.33333 H 67.763413 35.096746 Z"
       id="path4143" />
    <path
       style="fill:#c8ab37;stroke-width:1.33333"
       d="m 34.430081,301.8029 v -14 h 33.333334 33.333335 v 14 14 H 67.763415 34.430081 Z"
       id="path4123" />
    <path
       style="fill:#808000;stroke-width:1.33333"
       d="m 34.430081,354.46957 v -13.33334 h 33.333334 33.333335 v 13.33334 13.33333 H 67.763415 34.430081 Z"
       id="path4103" />
    <path
       style="fill:#000080;stroke-width:1.33333"
       d="m 34.430081,407.13623 v -14 h 33.333334 33.333335 v 14 14 H 67.763415 34.430081 Z"
       id="path4061" />
    <path
       style="fill:#800000;stroke-width:1.33333"
       d="M 1175.0968,225.54791 V 4.2145822 h 55.3333 55.3333 V 225.54791 446.88124 h -55.3333 -55.3333 z"
       id="path4037" />
    <path
       style="fill:#000080;stroke-width:1.33333"
       d="m 970.66441,450.00444 c -0.49553,-0.49554 -0.90097,-32.00098 -0.90097,-70.0121 v -69.1111 h 68.67856 68.6786 l -0.3453,69.66666 -0.3452,69.66667 -67.4324,0.34543 c -37.0877,0.18998 -67.83774,-0.06 -68.33329,-0.55556 z"
       id="path4035" />
    <path
       style="fill:#808000;stroke-width:1.33333"
       d="m 532.43009,642.21456 v -55.33333 h 118.66667 118.66667 v 55.33333 55.33334 H 651.09676 532.43009 Z"
       id="path4033" />
    <path
       style="fill:#c8ab37;stroke-width:1.33333"
       d="m 36.430079,625.5479 v -72 h 68.000001 68 v 72 72 h -68 -68.000001 z"
       id="path4031" />
    <path
       style="fill:#552200;stroke-width:1.33333"
       d="M 1173.7634,581.5479 V 462.88124 h 55.3334 55.3333 V 581.5479 700.21456 h -55.3333 -55.3334 z"
       id="path4029" />
    <path
       style="fill:#908f90;stroke-width:1.33333"
       d="M 1048.4301,1024.8812 V 909.54789 h 108 108 v 115.33331 115.3333 h -108 -108 z"
       id="path4027" />
    <path
       style="fill:#908f90;stroke-width:1.33333"
       d="M 541.76343,1024.8812 V 909.54789 h 108 108 v 115.33331 115.3333 h -108 -108 z"
       id="path4025" />
    <path
       style="fill:#908f90;stroke-width:1.33333"
       d="M 21.763412,1024.8812 V 909.54789 H 129.76341 237.76342 v 115.33331 115.3333 H 129.76341 21.763412 Z"
       id="path4021" />
    <g
       id="g1775"
       transform="translate(149.14258,-91.055473)">
      <path
         sodipodi:type="star"
         style="fill:#ffca00;fill-opacity:1;stroke:#000000;stroke-width:4.58023;stroke-dasharray:none;stroke-dashoffset:0;stroke-opacity:1"
         id="path1746"
         inkscape:flatsided="false"
         sodipodi:sides="4"
         sodipodi:cx="-394.97305"
         sodipodi:cy="140.20688"
         sodipodi:r1="39.709908"
         sodipodi:r2="132.36636"
         sodipodi:arg1="1.674321"
         sodipodi:arg2="2.4597192"
         inkscape:rounded="1"
         inkscape:randomized="0"
         d="m -399.07667,179.70418 c -107.42299,-11.16083 -30.59712,127.77784 -98.66475,43.92642 -68.06762,-83.85142 52.11023,19.89565 63.27106,-87.52734 11.16084,-107.422986 -127.77784,-30.59712 -43.92642,-98.664744 83.85142,-68.067624 -19.89564,52.110224 87.52734,63.271054 107.42299,11.16084 30.59712,-127.777838 98.66475,-43.926415 68.06762,83.851415 -52.11022,-19.895646 -63.27106,87.527335 -11.16083,107.42299 127.77784,30.59713 43.92642,98.66475 -83.85142,68.06763 19.89565,-52.11022 -87.52734,-63.27106 z"
         transform="matrix(0.13720333,-0.16983226,0.16983226,0.13720333,-312.02189,641.28497)" />
      <path
         style="fill:none;stroke:#000000;stroke-width:2;stroke-linecap:round;stroke-linejoin:round;stroke-dasharray:none;stroke-opacity:1"
         d="m -366.20163,701.22011 23.80297,-18.43785 23.80296,18.43785"
         id="path1769"
         sodipodi:nodetypes="ccc" />
    </g>
    <path
       style="fill:none;stroke:#000000;stroke-width:2;stroke-linecap:round;stroke-linejoin:round;stroke-dasharray:none;stroke-opacity:1"
       d="m -464.73835,702.12689 23.80297,-18.43785 23.80296,18.43785"
       id="path1771"
       sodipodi:nodetypes="ccc" />
    <g
       id="g3921">
      <g
         id="g3901"
         transform="matrix(1.291578,0,0,1.291578,121.35773,-225.83204)"
         style="stroke-width:0.7742467;stroke-dasharray:none">
        <g
           id="g1976"
           style="stroke-width:0.7742467;stroke-dasharray:none">
          <path
             id="ellipse1964"
             style="fill:#fffddc;stroke:#000000;stroke-linecap:round;stroke-linejoin:round;stroke-width:0.7742467;stroke-dasharray:none"
             d="m -411.29492,784.33984 c 0.12996,4.62489 -0.2468,9.54558 0,14.03321 2.76543,8.79312 20.06754,6.62806 20.25411,-0.53516 0.2118,-4.27325 0,-9.04105 0,-13.49805 z"
             sodipodi:nodetypes="ccccc" />
          <ellipse
             style="fill:#fffddc;fill-opacity:1;stroke:#000000;stroke-width:0.7742467;stroke-linecap:round;stroke-linejoin:round;stroke-dasharray:none;stroke-dashoffset:0;stroke-opacity:1"
             id="path1835"
             ry="5.9937019"
             rx="10.127289"
             cy="784.85736"
             cx="-401.16391" />
        </g>
        <path
           id="path2030"
           style="fill:url(#linearGradient2112);stroke:#000000;stroke-width:0.7742467;stroke-linecap:round;stroke-linejoin:round;stroke-dasharray:none"
           d="m -397.73272,779.41177 c -0.034,2.29879 -1.44506,4.0114 -3.10316,4.0114 -1.65809,0 -3.78886,-2.0025 -3.00224,-4.16277 0.83256,-2.28643 2.35634,-5.68989 3.00224,-4.16278 0.40015,0.94608 1.57854,2.331 2.22382,1.37062 0.60613,-0.90211 0.90457,1.23897 0.87934,2.94353 z"
           sodipodi:nodetypes="ssssss" />
      </g>
      <path
         style="fill:none;stroke:#000000;stroke-width:2;stroke-linecap:round;stroke-linejoin:round;stroke-dasharray:none;stroke-opacity:1"
         d="m -420.57971,783.1764 23.80297,-18.43785 23.80296,18.43785"
         id="path3895"
         sodipodi:nodetypes="ccc" />
    </g>
    <g
       id="g4879">
      <g
         aria-label="P"
         id="text4835"
         style="font-size:40px;line-height:1.25;fill:#000000;fill-opacity:1;stroke:#000000;stroke-opacity:1;stroke-linecap:butt;stroke-linejoin:round"
         transform="translate(-480.39611,91.840434)">
        <path
           id="path4841"
           style="fill:#90ec2f;fill-opacity:1;stroke:#000000;stroke-opacity:1;stroke-linecap:butt;stroke-linejoin:round"
           d="M 409.06799 397.72011 L 409.06799 423.69277 L 393.73791 413.92714 L 393.73791 418.58144 L 408.92736 427.98769 L 393.73791 437.24941 L 393.73791 442.24746 L 409.06799 432.4916 L 409.06799 446.88418 L 412.66759 446.88418 L 412.66759 430.97793 L 428.72228 441.41347 L 428.72228 436.75918 L 415.00353 428.13613 L 428.72228 419.56191 L 428.72228 414.66152 L 412.66759 425.08144 L 412.66759 415.15957 L 415.94689 415.15957 C 418.80022 415.15957 421.05333 414.7336 422.70666 413.88027 C 424.38666 413.02694 425.57387 411.91996 426.2672 410.55996 C 426.9872 409.17329 427.34728 407.69188 427.34728 406.11855 C 427.34728 403.45188 426.4934 401.386 424.78674 399.91933 C 423.08007 398.45266 420.35991 397.72011 416.62658 397.72011 L 409.06799 397.72011 z M 412.66759 400.80019 L 416.30822 400.80019 C 418.84155 400.80019 420.69348 401.2529 421.86681 402.15957 C 423.04014 403.06624 423.62658 404.43871 423.62658 406.27871 C 423.62658 408.38537 422.95991 409.87918 421.62658 410.75918 C 420.29325 411.63917 418.2665 412.07949 415.5465 412.07949 L 412.66759 412.07949 L 412.66759 400.80019 z " />
      </g>
      <g
         aria-label="X"
         transform="rotate(90)"
         id="text4839"
         style="font-size:48.9972px;line-height:1.25;stroke:#000000;stroke-width:1.22493;stroke-linejoin:round" />
    </g>
    <text
       xml:space="preserve"
       style="font-style:normal;font-variant:normal;font-weight:normal;font-stretch:normal;font-size:21.3333px;line-height:1.25;font-family:sans-serif;-inkscape-font-specification:'sans-serif, Normal';font-variant-ligatures:normal;font-variant-caps:normal;font-variant-numeric:normal;font-variant-east-asian:normal;fill:#000000;fill-opacity:1;stroke:none"
       x="107.48716"
       y="205.10423"
       id="text5283"><tspan
         sodipodi:role="line"
         id="tspan5281"
         x="107.48716"
         y="205.10423">: Server Seating</tspan></text>
    <text
       xml:space="preserve"
       style="font-style:normal;font-variant:normal;font-weight:normal;font-stretch:normal;font-size:21.3333px;line-height:1.25;font-family:sans-serif;-inkscape-font-specification:'sans-serif, Normal';font-variant-ligatures:normal;font-variant-caps:normal;font-variant-numeric:normal;font-variant-east-asian:normal;fill:#000000;fill-opacity:1;stroke:none"
       x="107.48716"
       y="257.09357"
       id="text5287"><tspan
         sodipodi:role="line"
         id="tspan5285"
         x="107.48716"
         y="257.09357">: Credence Table</tspan></text>
    <text
       xml:space="preserve"
       style="font-style:normal;font-variant:normal;font-weight:normal;font-stretch:normal;font-size:21.3333px;line-height:1.25;font-family:sans-serif;-inkscape-font-specification:'sans-serif, Normal';font-variant-ligatures:normal;font-variant-caps:normal;font-variant-numeric:normal;font-variant-east-asian:normal;fill:#000000;fill-opacity:1;stroke:none"
       x="107.48716"
       y="309.76022"
       id="text5291"><tspan
         sodipodi:role="line"
         id="tspan5289"
         x="107.48716"
         y="309.76022">: Ambo</tspan></text>
    <text
       xml:space="preserve"
       style="font-style:normal;font-variant:normal;font-weight:normal;font-stretch:normal;font-size:21.3333px;line-height:1.25;font-family:sans-serif;-inkscape-font-specification:'sans-serif, Normal';font-variant-ligatures:normal;font-variant-caps:normal;font-variant-numeric:normal;font-variant-east-asian:normal;fill:#000000;fill-opacity:1;stroke:none"
       x="107.48716"
       y="362.42688"
       id="text5295"><tspan
         sodipodi:role="line"
         id="tspan5293"
         x="107.48716"
         y="362.42688">: Altar</tspan></text>
    <text
       xml:space="preserve"
       style="font-style:normal;font-variant:normal;font-weight:normal;font-stretch:normal;font-size:21.3333px;line-height:1.25;font-family:sans-serif;-inkscape-font-specification:'sans-serif, Normal';font-variant-ligatures:normal;font-variant-caps:normal;font-variant-numeric:normal;font-variant-east-asian:normal;fill:#000000;fill-opacity:1;stroke:none"
       x="107.48716"
       y="415.09354"
       id="text5299"><tspan
         sodipodi:role="line"
         id="tspan5297"
         x="107.48716"
         y="415.09354">: Priest's Chair</tspan></text>
    <text
       xml:space="preserve"
       style="font-style:normal;font-weight:normal;font-size:40px;line-height:1.25;font-family:sans-serif;fill:#000000;fill-opacity:1;stroke:none"
       x="314.159"
       y="373.54947"
       id="text5303"><tspan
         sodipodi:role="line"
         id="tspan5301"
         x="314.159"
         y="373.54947" /></text>
  </g>
</svg>
